<svg width="32" height="32" viewBox="0 0 32 32" fill="none" xmlns="http://www.w3.org/2000/svg">
<path d="M12.5 25.1667C6.66671 26.9167 6.66671 22.25 4.33337 21.6667M20.6667 28.6667V24.1517C20.7105 23.5954 20.6353 23.0361 20.4462 22.5111C20.2571 21.9861 19.9585 21.5073 19.57 21.1067C23.2334 20.6983 27.0834 19.31 27.0834 12.94C27.0831 11.3111 26.4565 9.74473 25.3334 8.565C25.8652 7.13992 25.8276 5.56474 25.2284 4.16667C25.2284 4.16667 23.8517 3.75833 20.6667 5.89333C17.9927 5.16862 15.174 5.16862 12.5 5.89333C9.31504 3.75833 7.93837 4.16667 7.93837 4.16667C7.33915 5.56474 7.30154 7.13992 7.83337 8.565C6.70186 9.75348 6.07465 11.334 6.08337 12.975C6.08337 19.2983 9.93337 20.6867 13.5967 21.1417C13.2129 21.5383 12.9168 22.0113 12.7279 22.5299C12.539 23.0485 12.4613 23.6011 12.5 24.1517V28.6667" stroke="black" stroke-width="2" stroke-linecap="round" stroke-linejoin="round"/>
</svg>
