<svg width="32" height="32" viewBox="0 0 32 32" fill="none" xmlns="http://www.w3.org/2000/svg">
<path d="M20.6666 11.3333C22.5231 11.3333 24.3036 12.0708 25.6164 13.3836C26.9291 14.6963 27.6666 16.4768 27.6666 18.3333V26.5H23V18.3333C23 17.7145 22.7541 17.121 22.3165 16.6834C21.879 16.2458 21.2855 16 20.6666 16C20.0478 16 19.4543 16.2458 19.0167 16.6834C18.5791 17.121 18.3333 17.7145 18.3333 18.3333V26.5H13.6666V18.3333C13.6666 16.4768 14.4041 14.6963 15.7169 13.3836C17.0296 12.0708 18.8101 11.3333 20.6666 11.3333Z" stroke="black" stroke-width="2" stroke-linecap="round" stroke-linejoin="round"/>
<path d="M9.00004 12.5H4.33337V26.5H9.00004V12.5Z" stroke="black" stroke-width="2" stroke-linecap="round" stroke-linejoin="round"/>
<path d="M6.66671 9C7.95537 9 9.00004 7.95533 9.00004 6.66667C9.00004 5.378 7.95537 4.33333 6.66671 4.33333C5.37804 4.33333 4.33337 5.378 4.33337 6.66667C4.33337 7.95533 5.37804 9 6.66671 9Z" stroke="black" stroke-width="2" stroke-linecap="round" stroke-linejoin="round"/>
</svg>
