<svg width="80" height="80" viewBox="0 0 80 80" fill="none" xmlns="http://www.w3.org/2000/svg">
<g clip-path="url(#clip0_3_39)">
<path d="M67.514 82.427C67.514 82.427 69.25 69.739 63.909 61.868C58.568 53.997 52.665 62.43 52.665 62.43L56.038 86.324L67.514 82.427Z" fill="#DDA75C"/>
<path d="M25.676 81.873L14.994 81.03C14.994 81.03 17.524 53.482 27.644 58.261C37.764 63.04 25.676 81.874 25.676 81.874V81.873Z" fill="#DDA75C"/>
<path d="M39.456 14.246C39.456 14.246 32.002 14.698 27.145 18.764C22.289 22.83 25.112 45.418 25.112 45.418L38.463 52.492L30.673 60.715L41.15 66.086L51.654 57.615L47.023 49.935L58.368 35.328L48.718 16.618L39.457 14.246H39.456Z" fill="#DDA75C"/>
<path d="M14.602 80.363C14.393 80.023 14.63 79.627 14.661 79.331C14.87 77.34 15.112 75.665 15.582 73.684C15.667 73.325 15.596 72.854 15.666 72.508C15.724 72.221 16.158 71.368 16.187 71.164C16.206 71.027 16.085 70.974 16.079 70.862C16.047 70.292 16.572 69.272 16.758 68.692C16.963 68.051 17.109 67.415 17.338 66.752C17.431 66.485 17.471 66.163 17.551 65.971C17.631 65.779 17.773 65.788 17.837 65.66C18.25 64.84 18.378 63.714 18.951 62.927C19.533 62.127 19.96 61.178 20.769 60.567C21.24 60.211 21.503 60.141 21.827 60.729C21.587 60.97 21.237 61.062 20.999 61.262C19.557 62.471 18.202 66.286 17.555 68.096C17.173 69.165 17.135 70.12 16.824 71.145C16.739 71.426 16.672 71.698 16.394 71.842L16.592 71.907C16.133 72.545 16.387 73.596 16.196 74.281C16.179 74.343 16.059 74.352 16.009 74.438C15.897 74.633 15.833 75.974 15.782 76.335C15.694 76.964 15.616 77.622 15.524 78.266C15.457 78.74 15.266 79.247 15.209 79.741C15.185 79.948 15.208 80.157 15.201 80.363H14.604H14.602Z" fill="black"/>
<path d="M34.401 50.273C34.476 49.99 33.781 49.84 33.586 49.73C33.053 49.43 32.767 49.125 32.336 48.791C32.097 48.606 31.731 48.42 31.482 48.22C31.616 48.605 31.709 49.014 31.868 49.392C31.989 49.68 32.213 50.158 32.351 50.434C33.229 52.183 34.652 53.171 36.184 54.293C36.561 54.569 36.807 55.085 37.312 54.813C37.805 54.548 37.892 54.138 38.112 53.707C38.14 53.653 38.243 53.642 38.295 53.544C38.398 53.352 38.625 52.447 38.542 52.266C38.474 52.116 37.885 51.792 37.707 51.709C37.028 51.394 36.324 51.136 35.643 50.855C35.26 50.697 34.864 50.252 34.401 50.272V50.273Z" fill="#231815"/>
<path d="M38.024 34.612L37.348 35.024C37.303 35.567 37.112 36.168 37.189 36.71C37.218 36.912 37.338 37.064 37.378 37.25C37.412 37.409 37.349 37.596 37.396 37.763C37.492 38.104 38.205 38.387 38.011 38.806C37.782 38.66 37.506 38.719 37.298 38.669C37.253 38.658 37.248 38.582 37.221 38.566C37.171 38.537 37.091 38.541 37.072 38.522C37.016 38.467 37.026 38.383 36.984 38.323C36.6 37.775 36.761 37.754 36.648 37.185C36.583 36.858 36.43 36.525 36.424 36.186C36.42 35.901 36.578 34.902 36.723 34.682C36.847 34.494 37.158 34.344 37.283 34.229C38.18 33.407 37.716 32.242 38.055 31.188C38.305 31.154 38.546 31.135 38.658 31.395C38.798 31.719 38.617 31.734 38.581 31.947C38.428 32.86 38.552 33.819 38.024 34.612Z" fill="black"/>
<path d="M44.921 32.593C45.101 32.846 45.139 32.954 45 33.225L44.479 33.167C44.605 33.513 43.776 34.015 43.562 33.886C43.536 33.871 43.484 33.707 43.44 33.647C43.399 33.591 43.308 33.559 43.304 33.549C43.149 33.183 43.368 33.072 43.489 32.868C43.527 32.804 43.493 32.734 43.505 32.717C43.554 32.652 43.795 32.572 43.844 32.441C43.893 32.31 43.775 31.935 43.783 31.909C43.824 31.778 44.049 31.556 44.094 31.391C44.355 31.301 44.509 31.461 44.593 31.693C44.643 31.832 44.677 32.382 44.707 32.437C44.752 32.521 44.88 32.533 44.922 32.592L44.921 32.593Z" fill="black"/>
<path d="M37.506 42.661C37.528 42.68 37.523 42.816 37.579 42.883C37.883 43.251 38.785 43.694 39.267 43.646C39.43 43.63 39.507 43.492 39.619 43.462C39.731 43.432 40.381 43.384 40.425 43.455C40.518 43.796 40.316 43.806 40.129 43.974C40.073 44.025 40.049 44.148 40.024 44.163C40.004 44.175 39.925 44.121 39.885 44.136C38.87 44.511 38.525 44.275 37.625 43.768C37.457 43.478 36.897 43.323 36.926 42.947C36.948 42.656 37.361 42.532 37.506 42.661Z" fill="black"/>
<path d="M33.986 30.93C34.096 31.166 34.61 31.442 34.702 31.643C34.725 31.694 34.581 31.836 34.59 32.007C34.595 32.096 34.828 32.616 34.797 32.637C34.343 32.539 34.186 33.134 33.732 32.94L33.679 32.861C33.659 32.564 33.682 32.188 33.572 31.907C33.505 31.738 33.332 31.615 33.253 31.423C33.189 31.268 33.345 31.196 33.14 31.147C33.386 30.958 33.676 30.848 33.987 30.931L33.986 30.93Z" fill="black"/>
<path d="M22.356 83.348L56.932 83.629C56.932 83.629 56.651 79.694 57.775 72.947C55.112 64.242 57.54 58.714 57.54 58.714L48.661 56.401C48.661 56.401 47.374 64.233 40.347 63.671C33.319 63.109 31.352 57.768 31.352 57.768L24.606 59.736C24.606 59.736 25.73 71.261 22.638 74.353C22.076 78.57 22.357 83.348 22.357 83.348H22.356Z" fill="#FFF6D4"/>
<path d="M49.871 72.281C50.1 72.176 50.435 71.975 50.627 71.798C50.903 71.544 51.288 71.04 51.374 70.664C51.465 70.265 51.408 70.055 51.24 69.694C51.023 69.228 50.652 68.662 50.22 68.38C49.877 68.155 49.142 67.969 48.747 68.086C48.67 68.109 48.507 68.217 48.407 68.249C48.147 68.332 47.878 68.39 47.627 68.474C47.566 68.494 46.735 69.249 46.671 69.334C46.548 69.497 46.462 69.756 46.396 69.952C46.345 69.917 46.271 69.931 46.225 69.912C46.06 69.846 46.038 69.085 46.102 68.927L46.043 68.9C46.136 68.727 45.967 68.504 45.944 68.378C45.896 68.119 45.946 68.033 45.762 67.781C45.615 67.58 45.441 67.51 45.264 67.371C44.701 66.926 43.976 66.426 43.233 66.354C42.547 66.288 41.511 66.578 40.962 66.932C40.789 67.043 40.714 67.095 40.599 67.284C40.359 67.678 40.207 68.409 40.27 68.864C40.318 69.213 40.873 69.995 41.16 70.211C41.267 70.292 41.489 70.394 41.605 70.448C41.921 70.595 42.016 70.934 42.346 71.052C42.35 71.111 42.337 71.18 42.313 71.245C42.319 71.277 42.319 71.31 42.313 71.342C42.422 71.28 42.496 71.285 42.482 71.456L41.804 72.133C41.674 72.304 41.464 72.396 41.324 72.577C41.073 72.901 40.982 73.545 40.971 73.967C40.965 74.198 40.981 75.011 41.03 75.203C41.05 75.281 41.141 75.37 41.175 75.449C41.355 75.866 41.437 76.196 41.87 76.44C42.321 76.695 42.446 76.668 42.945 76.66C43.59 76.649 44.216 76.693 44.757 76.3C44.923 76.179 45.553 75.514 45.606 75.333C45.628 75.257 45.609 74.795 45.864 75.009C46.084 75.194 46.073 75.538 46.237 75.771C46.382 75.977 46.779 76.175 46.967 76.337C47.117 76.467 47.414 76.795 47.586 76.885C47.693 76.941 47.823 76.917 47.945 76.98C48.169 77.095 48.316 77.209 48.576 77.315C48.599 77.325 48.603 77.369 48.626 77.375C48.903 77.437 49.487 77.18 49.728 77.026C49.874 76.932 50.498 76.428 50.597 76.307C50.78 76.083 50.898 75.36 50.908 75.059C50.922 74.641 50.737 74.602 50.652 74.272C50.639 74.221 50.67 74.172 50.654 74.112C50.571 73.808 49.876 73.134 49.593 72.967C49.442 72.878 49.042 72.814 49.233 72.576C49.382 72.391 49.677 72.373 49.874 72.283L49.871 72.281ZM47.859 72.856C47.753 73.075 47.524 73.433 47.388 73.65C47.352 73.708 46.739 74.366 46.685 74.406C46.652 74.43 45.981 74.663 45.919 74.672C45.854 74.682 45.449 74.635 45.38 74.618C45.337 74.608 45.17 74.55 45.08 74.523C44.49 74.35 43.669 73.704 43.492 73.095C43.386 72.734 43.336 72.253 43.455 71.889C43.579 71.51 44.216 70.682 44.551 70.425C44.691 70.317 44.803 70.318 44.977 70.347C45.282 70.397 45.734 70.686 46.038 70.777C46.294 70.854 46.508 70.819 46.806 70.967C47.1 71.113 47.417 71.479 47.627 71.75C47.94 72.154 48.106 72.345 47.859 72.856Z" fill="#0C5EB7"/>
<path d="M46.798 70.968C47.093 71.115 47.411 71.482 47.621 71.753C47.935 72.158 48.101 72.349 47.854 72.862C47.748 73.082 47.518 73.44 47.382 73.658C47.346 73.716 46.731 74.376 46.677 74.416C46.643 74.44 45.971 74.673 45.909 74.683C45.844 74.693 45.438 74.646 45.369 74.629C45.326 74.619 45.159 74.561 45.068 74.534C44.477 74.36 43.653 73.712 43.475 73.102C43.369 72.74 43.318 72.258 43.438 71.892C43.563 71.512 44.201 70.682 44.537 70.424C44.677 70.316 44.789 70.317 44.964 70.346C45.27 70.396 45.723 70.686 46.028 70.777C46.285 70.854 46.499 70.819 46.798 70.967V70.968ZM46.924 73.641C47.14 73.411 47.211 73.148 47.348 72.878C47.379 72.817 47.57 72.567 47.575 72.535C47.604 72.345 47.459 72.256 47.381 72.123C47.186 71.791 46.998 71.484 46.62 71.323C46.371 71.217 46.075 71.174 45.824 71.079C45.588 70.989 44.981 70.619 44.761 70.713C44.54 70.976 44.263 71.234 44.064 71.512C43.848 71.812 43.787 72.035 43.734 72.388C43.687 72.701 43.818 72.717 43.89 72.95C43.918 73.042 43.903 73.183 43.956 73.306C44.12 73.678 44.678 74.084 45.059 74.218C45.249 74.285 45.545 74.37 45.742 74.329C45.923 74.292 46.793 73.781 46.923 73.642L46.924 73.641Z" fill="black"/>
<path d="M46.394 68.868C46.429 68.903 46.53 68.881 46.517 68.972H46.581C46.619 68.823 46.8 68.763 46.907 68.664C47.423 68.188 47.389 68.151 48.11 67.921C48.28 67.867 48.308 67.866 48.476 67.793C48.821 67.641 49.609 67.712 49.972 67.81C50.044 67.83 50.463 68.114 50.546 68.179C51.138 68.641 51.434 69.253 51.712 69.938C51.731 69.986 51.791 70.031 51.802 70.077C51.809 70.105 51.789 70.428 51.783 70.484C51.713 71.149 50.918 72.244 50.294 72.506C50.21 72.541 50.048 72.516 50.01 72.631C49.996 72.674 50.028 72.819 50.058 72.852C50.088 72.885 50.141 72.878 50.173 72.906C50.442 73.142 50.513 73.287 50.71 73.565C50.878 73.802 50.964 73.854 51.072 74.155C51.155 74.385 51.338 75.069 51.32 75.296C51.302 75.518 51.191 75.768 51.154 76.001C51.143 76.069 51.178 76.136 51.16 76.199C51.077 76.485 50.25 77.076 49.987 77.263C49.896 77.328 49.882 77.384 49.735 77.442C49.22 77.644 48.778 77.804 48.229 77.609C47.959 77.513 47.113 77.011 46.922 76.808C46.739 76.613 46.637 76.515 46.424 76.354C46.225 76.203 45.944 76.072 45.846 75.831C45.689 75.788 45.483 76.037 45.382 76.147C45.144 76.403 44.922 76.741 44.541 76.834C43.915 76.987 43.073 77.055 42.435 76.997C42.099 76.967 41.481 76.677 41.249 76.433C41.161 76.34 40.979 76.027 40.911 75.895C40.63 75.346 40.527 74.978 40.538 74.358C40.552 73.606 40.582 73.144 40.948 72.51C40.969 72.473 40.945 72.411 40.973 72.355C41.051 72.2 41.59 71.835 41.76 71.745C41.983 71.627 42.386 71.405 42.35 71.83L41.778 72.138C41.647 72.31 41.437 72.402 41.297 72.583C41.045 72.908 40.954 73.553 40.943 73.977C40.937 74.209 40.953 75.024 41.002 75.217C41.022 75.296 41.113 75.384 41.148 75.464C41.328 75.882 41.411 76.213 41.844 76.458C42.297 76.714 42.421 76.687 42.922 76.678C43.569 76.667 44.197 76.711 44.739 76.317C44.906 76.196 45.538 75.529 45.591 75.347C45.613 75.27 45.594 74.807 45.85 75.022C46.071 75.208 46.06 75.552 46.224 75.786C46.369 75.992 46.768 76.191 46.956 76.354C47.107 76.484 47.404 76.814 47.577 76.903C47.684 76.959 47.814 76.935 47.937 76.998C48.162 77.113 48.309 77.227 48.57 77.334C48.593 77.344 48.598 77.389 48.62 77.394C48.898 77.456 49.484 77.198 49.725 77.044C49.872 76.95 50.497 76.444 50.597 76.323C50.781 76.098 50.898 75.373 50.909 75.071C50.923 74.652 50.737 74.613 50.652 74.281C50.639 74.23 50.67 74.181 50.654 74.121C50.571 73.817 49.874 73.14 49.59 72.973C49.438 72.884 49.037 72.82 49.229 72.581C49.378 72.395 49.674 72.378 49.871 72.288C50.1 72.183 50.436 71.981 50.629 71.804C50.905 71.55 51.291 71.044 51.378 70.667C51.47 70.267 51.412 70.057 51.244 69.695C51.027 69.227 50.655 68.661 50.221 68.377C49.877 68.152 49.14 67.965 48.744 68.082C48.667 68.105 48.503 68.213 48.403 68.245C48.142 68.328 47.873 68.387 47.621 68.471C47.56 68.491 46.727 69.248 46.662 69.333C46.538 69.497 46.452 69.757 46.387 69.952C46.335 69.917 46.262 69.931 46.216 69.912C46.05 69.845 46.029 69.082 46.093 68.925L46.034 68.897C46.127 68.724 45.958 68.5 45.934 68.373C45.885 68.113 45.936 68.027 45.752 67.775C45.605 67.573 45.43 67.504 45.253 67.364C44.688 66.917 43.961 66.416 43.216 66.344C42.528 66.278 41.489 66.569 40.939 66.923C40.766 67.034 40.691 67.086 40.575 67.276C40.334 67.671 40.182 68.404 40.245 68.861C40.293 69.211 40.85 69.995 41.137 70.212C41.245 70.293 41.467 70.396 41.583 70.45C41.9 70.598 42.22 70.648 42.551 70.767C42.561 70.941 42.186 70.992 42.053 70.959C42.028 70.953 42.033 70.895 42.012 70.894C41.872 70.888 41.867 70.911 41.698 70.859C41.569 70.82 41.244 70.677 41.092 70.581C40.809 70.403 40.368 69.761 40.199 69.459C40.166 69.4 40.064 69.241 40.052 69.217C39.882 68.861 39.988 68.817 40.013 68.502C40.059 67.918 39.981 67.77 40.303 67.231C40.512 66.881 40.7 66.746 41.031 66.547C41.301 66.384 41.688 66.307 42.032 66.196C42.074 66.182 42.122 66.214 42.16 66.196C42.279 66.142 42.194 66.137 42.393 66.096C43.48 65.871 44.458 66.406 45.313 67.011C45.463 67.117 46.049 67.558 46.11 67.677C46.135 67.726 46.346 68.331 46.353 68.377C46.373 68.496 46.318 68.796 46.395 68.872L46.394 68.868Z" fill="black"/>
<path d="M46.924 73.641C46.794 73.78 45.924 74.29 45.743 74.328C45.546 74.369 45.25 74.284 45.06 74.217C44.679 74.082 44.12 73.677 43.957 73.305C43.903 73.183 43.919 73.042 43.891 72.949C43.819 72.716 43.688 72.7 43.735 72.387C43.789 72.034 43.849 71.812 44.065 71.511C44.264 71.234 44.541 70.975 44.762 70.712C44.982 70.618 45.589 70.988 45.825 71.078C46.076 71.173 46.372 71.216 46.621 71.322C46.999 71.483 47.187 71.79 47.382 72.122C47.46 72.254 47.605 72.343 47.576 72.534C47.571 72.566 47.38 72.816 47.349 72.877C47.211 73.147 47.14 73.41 46.925 73.64L46.924 73.641Z" fill="#FFE000"/>
<path d="M37.519 42.673C37.541 42.692 37.536 42.828 37.592 42.895C37.896 43.263 38.798 43.706 39.28 43.658C39.443 43.642 39.52 43.504 39.632 43.474C39.744 43.444 40.708 43.038 40.752 43.109C42.238 42.736 40.472 43.744 40.142 43.986C40.081 44.031 40.062 44.16 40.037 44.175C40.017 44.187 39.938 44.133 39.898 44.148C38.883 44.523 38.538 44.287 37.638 43.78C37.47 43.49 36.91 43.335 36.939 42.959C36.961 42.668 37.374 42.544 37.519 42.673Z" fill="black"/>
<path d="M33.361 27.532C33.336 27.516 32.229 27.313 32.2 27.32C31.433 27.507 31.439 27.183 32.336 26.812C32.366 26.8 33.164 26.69 33.187 26.689C33.526 26.676 33.939 26.933 34.158 26.997C34.711 27.158 35.94 27.24 35.615 27.531C35.469 27.418 33.401 27.559 33.361 27.533V27.532Z" fill="black"/>
<path d="M45.6 26.372C45.614 26.378 45.607 26.448 45.67 26.48C45.831 26.562 47.091 26.306 47.16 26.763C46.909 26.927 45.503 26.853 45.256 26.879C44.872 26.919 43.178 27.208 42.824 26.847L44.364 26.448C44.583 26.352 45.403 26.283 45.6 26.372Z" fill="black"/>
<path d="M22.33 81.709H21.866C21.781 81.415 22.028 81.111 22.044 80.871C22.147 79.292 22.364 77.614 22.403 76.039C22.413 75.622 22.124 75.191 22.76 75.011C22.829 75.024 22.922 75.742 22.926 75.841C22.997 77.493 22.723 79.239 22.539 80.884L22.33 81.708V81.709Z" fill="black"/>
<path d="M40.909 8.463C40.909 8.463 27.416 6.495 22.075 19.988C16.734 33.481 21.965 42.301 22.854 48.523C23.758 54.848 21.047 60.721 21.047 60.721C21.047 60.721 28.419 62.154 31.07 60.467C35.307 57.771 37.353 52.092 37.353 52.092C37.353 52.092 27.135 48.099 26.292 37.979C25.449 27.859 34.163 15.21 38.379 14.366C42.596 13.523 54.195 26.697 53.179 31.893C56.81 30.689 58.348 34.561 54.195 40.025C52.049 42.849 46.25 49.785 46.25 49.785C46.25 49.785 45.688 55.688 50.748 57.937C55.808 60.186 58.057 59.905 58.057 59.905C58.057 59.905 54.122 56.251 57.214 45.85C60.306 35.449 60.306 27.297 54.684 17.459C49.062 7.62 40.91 8.464 40.91 8.464L40.909 8.463Z" fill="#231815"/>
<path d="M57.146 60.58C57.222 60.614 57.259 61.106 57.226 61.268C57.206 61.367 57.17 61.968 57.168 62.006C57.135 62.625 57.182 62.771 57.104 63.141C56.896 64.117 56.815 65.511 57.014 66.487L56.876 66.562C57.109 67.172 56.877 67.778 56.892 68.348C56.911 69.102 57.318 71.068 57.712 71.692C57.786 71.81 58.105 72.658 58.106 72.732C58.109 72.944 57.936 72.974 57.775 72.948C57.624 72.924 56.977 72.171 56.919 72.021C56.037 69.735 55.81 65.767 56.156 63.349C56.197 63.06 56.436 61.645 56.483 61.449C56.586 61.016 56.865 60.434 57.146 60.581V60.58Z" fill="black"/>
<path d="M67.025 81.709C66.718 80.483 67.605 79.063 67.477 77.812C67.403 77.086 67.263 76.364 67.163 75.672C67.121 75.385 67.038 75.016 67.011 74.763C66.982 74.493 67.064 74.259 67.079 73.998L66.947 74.065C66.932 73.883 66.971 73.683 66.943 73.505C66.8 72.603 66.705 72.244 66.484 71.338C66.223 70.271 66.187 69.7 65.879 68.541C65.805 68.263 65.438 67.012 65.274 66.727C65.222 66.636 64.9 65.723 64.896 65.706C64.651 64.76 64.611 64.983 64.143 64.119C64.037 63.924 64.077 63.609 64.064 63.585C64.043 63.545 63.865 63.472 63.775 63.346C63.628 63.14 63.512 62.638 63.485 62.608C63.458 62.578 63.332 62.592 63.268 62.53C63.183 62.447 62.372 60.797 62.296 60.678C61.748 59.815 60.308 59.227 59.413 58.995C59.25 58.953 57.426 58.868 57.42 58.857C57.282 58.614 58.132 58.511 58.676 58.511C59.177 58.511 59.634 58.575 59.646 58.586C59.659 58.598 60.179 58.618 60.881 58.995C60.983 59.05 62.375 59.916 62.431 60.015C62.874 60.797 63.641 61.369 64.14 62.117C64.58 62.776 65.843 65.101 66.123 65.765C66.191 65.926 66.184 66.164 66.232 66.327C66.267 66.447 66.274 66.657 66.286 66.69C66.352 66.872 66.489 67.44 66.587 67.768C67.364 70.355 67.643 72.372 67.92 75.046C67.994 75.763 67.935 76.535 68.033 77.276C68.12 77.937 68.138 78.444 68.104 79.124C68.103 79.153 68.209 79.15 68.222 79.203C68.406 79.945 67.617 80.94 67.753 81.711H67.024L67.025 81.709Z" fill="black"/>
<path d="M45.196 8.648C45.697 8.967 46.501 9.433 47.07 9.721C47.247 9.81 47.696 9.883 47.841 9.978C47.888 10.009 48.032 10.255 48.16 10.355C48.88 10.919 49.705 11.437 50.373 12.054C50.718 12.373 51.137 12.965 51.464 13.251C51.559 13.334 51.878 13.432 51.98 13.569C52.07 13.689 51.927 13.635 52.209 13.931C52.417 14.15 53.15 14.895 53.258 15.128C53.504 15.663 53.899 16.113 54.325 16.59C54.427 16.705 54.759 16.931 54.8 17.01C55.028 17.449 54.954 17.298 55.29 17.681C55.584 18.016 55.857 18.345 56.152 18.679C56.48 19.05 56.084 19.385 56.38 19.837C56.884 20.606 57.413 21.346 57.824 22.222C58.091 22.791 58.141 23.368 58.325 23.979C58.444 24.377 58.867 24.921 58.946 25.333C58.987 25.546 58.885 25.75 58.905 25.914C58.933 26.141 59.14 26.567 59.174 26.976C59.274 28.181 59.416 29.063 59.619 30.245C59.815 31.387 59.916 32.696 59.956 33.919C59.999 35.222 59.893 36.457 59.72 37.782C59.688 38.025 59.736 38.443 59.701 38.62C59.67 38.779 59.458 38.961 59.409 39.196C59.309 39.676 59.286 40.028 59.15 40.528C58.813 41.768 59.004 43.289 58.525 44.531C58.438 44.756 58.45 44.851 58.342 45.086C57.824 46.214 57.685 47.658 57.086 48.646C57.282 49.198 56.801 49.524 56.756 50.118C56.736 50.386 56.818 50.577 56.811 50.77C56.804 50.963 56.639 51.391 56.615 51.635C56.474 53.101 56.434 54.584 56.3 56.03C56.229 56.79 56.857 58.541 57.113 59.359C57.226 59.72 57.514 59.971 57.371 60.424C57.024 60.813 56.632 60.408 56.312 60.359C56.148 60.334 55.957 60.361 55.785 60.356C55.601 60.35 55.516 60.184 55.454 60.422C54.42 59.991 51.646 58.917 50.491 58.216C50.037 57.941 49.193 57.501 49.151 57.061L51.873 58.277C52.585 58.307 53.566 59.259 54.285 59.184C55.873 59.473 56.479 59.452 56.427 59.317C56.396 59.235 56.424 59.111 56.384 59.027C55.977 58.163 55.698 57.678 55.68 56.675C55.66 55.592 55.68 54.524 55.683 53.423C55.685 52.883 55.643 52.864 55.589 52.408C55.546 52.048 55.685 51.873 55.758 51.639C55.886 51.228 55.797 50.723 55.86 50.337C55.98 49.6 56.229 48.675 56.449 47.954C56.74 46.997 57.183 46.194 57.546 45.272C57.716 44.84 57.601 44.454 57.706 44.106C57.811 43.758 58.305 43.036 58.377 42.721C58.463 42.345 58.439 41.853 58.567 41.452C58.676 41.113 58.482 40.349 58.553 40C58.704 39.257 58.729 38.492 58.919 37.726C59.035 37.258 59.131 36.626 59.224 36.106C59.299 35.683 59.321 34.099 59.317 33.597C59.315 33.198 59.368 33.164 59.368 32.762C59.368 32.151 59.164 31.552 59.06 30.921C58.947 30.235 58.839 29.806 58.772 29.103C58.691 28.259 58.501 27.325 58.442 26.514C58.416 26.151 58.575 25.796 58.34 25.486C58.274 25.399 58.122 25.368 58.107 25.308C58.078 25.186 58.127 25.002 58.107 24.858C58.013 24.137 57.79 23.595 57.592 22.918C57.451 22.433 57.517 22.715 57.348 22.435C57.205 22.199 57.097 21.721 56.976 21.494C55.997 19.661 55.169 18.221 53.879 16.638C53.275 15.897 52.655 15.158 52.015 14.424C51.273 13.575 50.556 12.701 49.58 11.985C49.321 11.795 49.176 11.735 48.857 11.813C48.845 11.694 48.698 11.302 48.639 11.236C48.58 11.17 48.443 11.184 48.403 11.142C48.391 11.129 48.462 11.025 48.396 10.986C48.317 10.94 48.196 10.959 48.09 10.888C47.974 10.811 47.757 10.53 47.715 10.504C47.673 10.478 47.113 10.582 47.197 10.156L47.296 10.089L46.865 9.891L46.931 10.221L46.733 10.09L46.723 10.209L46.609 10.169L46.534 10.288L46.466 9.891H46.732C46.622 9.589 46.369 9.906 46.245 9.88C46.198 9.87 45.833 9.587 45.73 9.533C45.542 9.435 45.212 9.327 45.057 9.225C44.953 9.156 44.474 8.938 44.381 8.879C44.334 8.85 42.435 8.69 42.307 8.659C41.927 8.569 40.732 9.027 40.835 8.345C40.85 8.247 40.797 8.237 40.935 8.246C41.788 8.301 44.271 8.321 44.964 8.648C45.07 8.698 45.175 8.632 45.196 8.645V8.648Z" fill="black"/>
<path d="M34.442 18.026C32.843 19.177 29.44 22.843 28.543 24.549C28.245 25.115 28.28 25.396 28.151 25.96C28.064 26.341 27.482 26.438 27.446 26.059C27.388 25.45 27.645 25.192 27.812 24.693C27.962 24.246 28.015 23.568 28.427 23.252C28.554 23.154 28.809 23.11 28.861 23.023C28.923 22.921 28.896 22.716 28.953 22.584C29.09 22.26 29.56 21.98 29.784 21.694C30.075 21.322 30.337 20.884 30.692 20.543C30.881 20.362 31.354 20.112 31.509 19.901C31.686 19.662 31.727 19.298 32.009 19.008C32.178 18.834 32.403 18.747 32.577 18.581C32.905 18.269 33.202 17.808 33.473 17.554C33.683 17.358 34.273 17.14 34.438 16.928C34.542 16.794 34.52 16.619 34.54 16.599C34.56 16.579 35.096 16.249 35.235 16.182C35.824 15.894 35.981 15.479 36.408 15.027C36.742 14.673 37.609 14.724 37.977 14.366C39.112 14.341 38.239 14.767 37.634 15.258C36.552 16.138 35.555 17.226 34.443 18.027L34.442 18.026Z" fill="black"/>
<path d="M57.343 81.709H56.614C56.782 81.273 56.632 80.735 56.639 80.294C56.66 78.969 56.671 77.448 56.903 76.186C57.115 75.029 57.328 74.433 57.716 73.293L57.784 72.851C58.339 73.097 58.215 73.328 58.152 73.599C58.082 73.901 58.125 74.421 58.068 74.775C57.793 76.467 57.351 78.181 57.478 79.955L57.343 81.71V81.709Z" fill="black"/>
<path d="M37.226 9.09305C37.347 9.15005 37.6 9.36605 37.718 9.42905C37.798 9.47105 37.893 9.46605 37.98 9.46505C38.04 9.52005 37.632 9.92505 37.602 9.93005C37.479 9.95105 37.367 9.88205 37.272 9.88705C36.559 9.92605 35.259 9.80205 34.645 9.94305C34.496 9.97705 34.198 10.132 33.918 10.21C32.12 10.711 30.523 11.456 29.091 12.677C28.721 12.993 28.283 13.431 27.888 13.78C24.96 16.369 23.081 19.016 21.192 22.417C20.504 23.656 20.858 25.018 20.194 26.294C19.278 28.054 19.749 30.611 19.457 32.5291C19.558 31.8661 19.833 39.19 19.641 38.477C20.09 40.148 20.984 42.1011 21.202 43.7891C21.48 45.945 22.549 49.665 22.536 51.835C22.534 52.164 22.565 52.6711 22.536 52.9631C22.502 53.293 22.274 53.591 22.22 53.9071C22.053 54.883 22.43 55.361 22.168 56.235C21.773 57.551 21.238 57.9871 20.302 59.2081C19.961 59.6531 19.381 59.8341 20.149 60.3591C20.793 60.8001 19.868 60.3341 20.542 60.5331C22.267 61.0421 23.228 61.3101 25.017 61.3211C25.395 61.3231 25.784 61.2221 26.21 61.2551C27.046 61.3211 28.126 61.9001 29.051 61.7781C29.333 61.7411 29.503 61.5451 29.758 61.6521C29.514 59.9421 30.899 61.1291 31.781 61.1211C32.099 61.1181 32.078 60.044 32.358 59.862C32.438 59.8101 33.487 58.4711 33.565 58.3591C33.715 58.1431 34.016 57.489 34.18 57.266C34.34 57.048 35.2 56.431 35.409 56.264C35.65 56.0731 36.02 55.8021 36.188 55.4781C36.209 55.3711 36.461 55.3001 36.37 55.2281C36.127 55.0351 36.506 55.21 36.209 55.173L36.26 55.054C36.068 55.018 37.279 53.4391 37.172 53.3211C36.954 53.0791 37.394 52.884 37.148 52.701C36.828 52.4641 35.809 52.2691 35.483 52.0031C35.122 51.7081 34.199 51.334 34.033 50.9291C33.956 50.7411 32.975 50.3951 32.959 50.338C32.917 50.191 32.642 50.356 32.583 50.177C32.531 50.019 32.418 49.669 32.351 49.516C32.203 49.175 31.387 49.642 31.164 49.2701C31.054 49.0871 30.707 48.9011 30.499 48.542C30.158 47.952 30.215 47.679 29.791 47.188C29.693 47.074 29.589 46.737 29.526 46.663C29.454 46.579 29.266 46.437 29.171 46.302C29.076 46.167 28.671 45.948 28.551 45.806C27.9 45.035 27.832 44.162 27.347 43.221C27.238 43.01 26.835 41.9491 26.783 41.875C26.654 41.69 26.311 39.6591 26.241 39.1701C26.205 38.9171 26.068 37.437 26.044 37.212C26.029 37.067 26.143 36.892 26.138 36.708C26.132 36.469 25.991 36.292 25.972 36.087C25.74 33.636 25.854 31.109 25.94 28.593C25.975 27.566 25.919 26.425 26.102 25.404C26.116 25.328 26.045 25.226 26.059 25.154C26.073 25.077 26.289 24.878 26.342 24.781C26.529 24.734 26.574 25.514 26.579 25.676C26.61 26.605 26.419 27.4781 26.371 28.392C26.201 31.6431 26.335 34.887 26.766 38.087C26.935 39.3431 26.977 40.267 27.487 41.472C27.946 42.557 28.329 43.7351 29.004 44.696C30.857 47.3381 32.542 48.757 35.435 50.236C36.113 50.583 38.478 51.784 39.08 51.8311C39.261 51.8451 39.408 51.651 39.466 51.897C40.389 51.707 41.383 51.7771 42.304 51.6201C42.657 51.5601 43.667 50.892 43.98 50.6441C44.113 50.5391 44.156 50.37 44.282 50.2831C44.641 50.037 45.264 49.8561 45.641 49.653C46.053 49.431 46.476 48.837 46.936 48.561C47.743 48.077 48.077 47.862 48.821 47.2601C49.509 46.7041 50.404 46.053 51.021 45.456C51.08 45.398 51.341 44.5741 51.481 44.41C51.629 44.236 52.177 44.07 52.367 43.766C52.483 43.5811 52.423 43.3521 52.699 43.25L52.567 43.086C52.639 43.082 52.725 43.0451 52.769 42.9891C52.819 42.9251 53.183 42.388 53.197 42.352C53.233 42.259 53.152 42.161 53.194 42.091C53.221 42.045 53.561 41.8201 53.664 41.6951C53.998 41.2891 53.872 40.972 53.996 40.486C54.089 40.121 54.149 39.67 54.142 39.102C54.135 38.581 53.962 36.989 53.887 36.444C53.666 34.847 53.528 33.97 53.178 32.393C52.851 30.923 53.021 28.8981 52.168 27.6691C51.848 27.208 51.267 26.5231 51.077 25.969C51.034 25.844 51.11 25.712 51.041 25.618C50.972 25.524 50.621 25.365 50.483 25.177C50.276 24.895 50.388 24.608 50.296 24.468C50.28 24.444 49.873 24.134 49.861 24.105C49.839 24.054 49.919 23.973 49.858 23.815C49.783 23.62 49.342 23.356 49.207 23.105C49.063 22.838 48.972 22.596 48.789 22.28C48.411 21.626 48.183 21.247 47.888 20.542C47.656 19.988 47.034 19.647 46.631 19.279C46.553 19.208 46.084 18.752 46.064 18.717C45.942 18.502 46.093 18.39 46.04 18.283C45.987 18.176 45.793 18.159 45.7 18.085C45.631 18.03 45.412 17.858 45.371 17.819C45.32 17.771 45.243 17.386 45.134 17.295L44.941 17.355L44.975 17.22C44.668 17.162 44.754 17.026 44.675 16.925C44.596 16.824 44.423 16.553 44.372 16.499C44.326 16.45 44.04 16.326 44.024 16.28C44.001 16.215 44.08 16.145 44.067 16.105C44.047 16.047 43.228 15.461 43.117 15.366C43.026 15.287 42.59 14.909 42.56 14.862C42.357 14.539 42.508 13.431 42.945 13.811C43.251 14.209 43.621 14.552 43.977 14.904C44.836 15.755 45.747 16.692 46.505 17.614C47.132 18.376 47.774 19.075 48.348 19.949C48.569 20.285 48.78 20.764 48.994 21.093C50.283 23.074 51.695 25.141 52.79 27.244C53.606 28.811 53.289 30.63 53.703 32.2941C54.154 34.112 54.249 34.989 54.395 36.081C54.554 37.273 54.7 39.387 54.905 39.54C55.097 39.684 55.816 38.6 55.878 39.011C55.948 39.477 55.703 39.354 55.59 39.6411C55.412 40.0961 55.155 41.188 55.166 41.66C55.17 41.8281 55.249 42.0191 55.286 42.1851L54.921 42.424C54.337 42.052 54.434 42.229 54.117 42.6151C53.862 42.925 53.801 43.119 53.589 43.413C53.496 43.542 53.24 43.7171 53.197 43.8161C53.121 43.9881 53.205 44.1851 53.09 44.3721C53.027 44.473 52.81 44.577 52.699 44.71C51.152 46.5731 49.697 47.988 47.667 49.291C47.379 49.4761 47.195 49.536 47.047 49.868C47.019 49.93 46.877 50.3591 46.867 50.417C46.817 50.7121 46.986 52.299 47.057 52.667C47.144 53.119 47.366 54.114 47.545 54.507C48.074 55.6721 50.281 56.9871 50.746 58.1401C50.786 58.2391 50.634 58.36 50.838 58.341L50.843 58.4701L50.381 58.6691C50.19 58.1361 49.741 57.8711 49.381 57.5131C49.04 57.1731 49.094 57.1651 48.677 56.856C47.806 56.21 47.103 55.279 46.793 54.21C46.485 53.147 46.426 51.843 46.054 50.756C46.032 50.69 46.038 50.641 46.068 50.5811C45.881 50.5121 45.867 50.6821 45.854 50.687C45.118 50.9811 44.33 51.795 43.609 52.2001C42.86 52.62 41.872 52.542 41.071 52.7261C40.525 52.8521 40.586 52.975 39.9 52.869C39.742 52.8451 39.551 52.6421 39.568 52.9011C38.867 52.4981 38.586 52.934 38.582 53.248C38.578 53.548 37.97 54.569 37.782 54.875C37.674 55.0511 37.443 55.307 37.408 55.472C37.356 55.716 36.872 55.667 36.871 56.0611C36.871 56.3311 36.665 56.319 36.541 56.468C36.454 56.572 36.107 57.1141 36.068 57.1401C36.027 57.1681 35.914 57.084 35.844 57.0881C35.689 57.097 35.25 57.5191 35.078 57.6381C34.555 57.9981 34.815 57.836 34.486 58.306C34.215 58.692 33.599 59.187 33.295 59.585L33.175 60.1841C33.522 60.3121 34.931 61.4711 35.055 61.6941C35.336 62.1971 37.012 63.0261 37.593 63.2011C39.531 63.7851 41.744 63.6291 43.649 62.9871C43.889 62.9061 45.666 62.1131 45.739 62.0241C45.812 61.9351 45.69 61.7171 45.99 61.8461C46.081 61.5991 46.174 61.4481 46.463 61.4581L46.327 61.3581L46.427 61.1201C46.564 61.0771 47.263 60.3611 47.348 60.2271C47.789 59.5311 47.937 58.66 48.266 58.243C48.355 58.1301 48.589 57.051 48.637 57.041C48.871 56.989 49.079 57.8611 49.119 58.1571C49.141 58.3161 49.021 58.341 48.942 58.429C48.918 58.456 48.973 58.623 48.784 58.642L48.835 58.7591C48.072 59.2101 48.073 60.6891 47.348 61.3881C46.915 61.8061 45.524 63.1031 45.033 63.4461C44.965 63.4931 44.951 63.6211 44.928 63.6351C44.908 63.6471 44.818 63.5771 44.743 63.6121C44.594 63.6821 44.559 63.8991 44.275 63.7131V63.9781C44.254 64.0011 43.794 63.8571 43.706 63.854C43.677 63.854 43.684 63.9621 43.629 63.9741C42.912 64.1271 42.2 64.2941 41.52 64.5091L41.451 64.3711C40.867 64.5571 40.16 64.4361 39.532 64.4361C39.177 64.4361 39.272 64.5311 38.852 64.4021C38.624 64.3321 38.655 64.3731 38.442 64.4021C38.167 64.4381 37.808 64.3071 37.907 63.9791L37.78 63.9861L37.734 64.1121C37.507 64.1781 37.516 64.0021 37.458 63.9831C37.139 63.8761 36.629 63.8201 36.383 63.6121C36.224 63.4781 36.297 63.1661 35.984 63.3141L36.051 63.1161C35.766 63.0361 35.402 62.9351 35.143 62.7961C35.076 62.7601 34.623 62.4691 34.605 62.4421C34.59 62.4191 34.667 62.0501 34.645 61.9691C34.587 61.7561 32.666 60.8031 33.025 60.3961C32.974 60.3581 33.196 60.6241 33.102 60.6641C32.508 60.9111 32.955 62.0531 32.23 62.1191C31.786 62.1591 31.362 61.8381 30.904 61.7981C30.262 61.7431 30.385 61.9281 29.984 62.2541C29.882 62.3371 29.702 62.3181 29.676 62.5081L28.358 62.5181L28.425 62.3861C28.053 62.271 27.618 62.3731 27.267 62.3161C27.057 62.2821 26.813 62.0711 26.504 62.0181C26.325 61.9871 26.151 61.9761 25.97 61.9891C26.185 62.4181 25.772 62.5261 25.71 62.9561C25.6 63.7281 25.608 64.6211 25.499 65.3971C25.362 66.3681 25.085 67.4521 24.861 68.4061C24.703 69.0771 24.722 69.6801 24.492 70.3581C24.163 71.3321 24.372 72.4181 23.781 73.2551C23.646 73.4471 23.222 74.0221 23.179 74.1191C23.086 74.3261 22.826 74.8351 22.71 75.0131C22.651 75.1031 22.829 75.438 22.758 75.566L22.346 75.8621C22.229 75.2401 22.369 74.0871 22.506 73.8081C22.867 73.0701 22.987 72.6361 23.372 71.7921C23.427 71.6721 23.289 71.7431 23.449 71.4911C23.894 70.7901 23.829 70.4051 23.999 69.6671C24.088 69.2791 24.283 69.1061 24.302 68.5831C24.305 68.4961 24.245 68.3821 24.258 68.3281C24.281 68.2291 24.481 68.2401 24.515 68.0571C24.544 67.8981 24.465 67.7471 24.471 67.604C24.49 67.1931 24.653 65.7931 24.653 65.4201C24.653 64.6631 24.576 64.3041 24.674 63.591C24.729 63.19 24.818 63.0181 24.758 62.6871C24.731 62.5351 24.696 62.1341 24.758 61.9721C24.693 61.9041 24.415 61.8571 24.278 61.8521C23.955 61.8391 23.376 61.9821 23.099 61.9251C23.02 61.9091 23.028 61.7181 22.874 61.6701C22.693 61.6141 21.98 61.6241 21.871 61.5731C21.308 61.3081 20.568 61.1101 19.953 60.8761C19.464 60.6901 20.336 61.3701 19.917 61.2231C19.271 60.9971 19.343 60.7531 18.779 60.4051C18.496 60.2301 19.058 60.5161 18.845 60.1981C18.373 59.4931 18.957 59.4291 19.358 59.0081C19.732 58.6151 20.127 57.954 20.272 57.461C20.329 57.2701 21.231 56.614 21.283 56.36C21.399 55.799 21.211 55.153 21.349 54.6571C21.443 54.3201 21.346 54.3601 21.521 53.9531C21.64 53.6771 21.922 51.694 21.921 51.368C21.919 50.918 21.8 50.3861 21.792 49.9191C21.78 49.2071 21.041 49.021 20.897 48.305C20.742 47.5311 20.768 46.7001 20.74 45.9351C20.739 45.896 20.619 45.904 20.606 45.8531C20.534 45.563 19.863 43.437 19.773 43.03C19.705 42.723 19.501 42.4351 19.465 42.21C19.41 41.8591 19.539 41.259 19.462 40.968C19.445 40.903 19.332 40.904 19.301 40.8531C18.82 40.0641 19.047 39.207 18.894 38.236C18.664 36.778 18.72 35.357 18.851 33.836C18.959 32.578 18.769 31.625 18.829 30.313C18.874 29.33 19.362 25.995 19.866 25.064C19.952 24.905 20.294 24.625 20.354 24.491C20.417 24.349 20.371 24.182 20.418 24.024C20.504 23.738 20.269 22.801 20.426 22.46C20.664 21.938 20.813 21.74 21.088 21.267C21.224 21.033 21.536 20.261 21.674 20.096C21.723 20.038 21.898 20.026 21.994 19.915C22.013 19.892 22.235 19.493 22.283 19.411C23.362 17.541 24.817 15.559 26.468 14.045C26.742 13.663 27.236 13.429 27.691 13.314L27.493 13.216C27.537 13.155 27.627 13.151 27.672 13.093C28.204 12.405 28.962 11.827 29.65 11.262C29.803 11.137 30.222 10.74 30.281 10.699C30.396 10.62 30.763 10.576 30.856 10.512C31.127 10.328 31.997 9.70805 32.314 9.61605C32.569 9.54205 33.448 9.46605 33.627 9.39105C33.687 9.36605 33.685 9.23205 33.766 9.20905C33.859 9.18205 34.003 9.29805 34.048 9.26705C34.08 9.24505 34.1 9.03305 34.232 9.02605C35.217 9.00305 36.273 8.65805 37.215 9.09905L37.226 9.09305Z" fill="black"/>
</g>
<defs>
<clipPath id="clip0_3_39">
<rect width="80" height="80" fill="white"/>
</clipPath>
</defs>
</svg>
